# xmcd
#
# Track frame offsets:
# 150
# 12443
# 28563
# 43443
# 59394
# 68694
# 90361
# 103494
# 114808
# 128304
# 139384
# 151233
# 164282
# 175381
#
# Disc length: 2523 seconds
#
#
# Revision: 0
# Processed by: cddbd v1.5.1PL0 Copyright (c) Steve Scherf et al.
# Submitted via: FreeRIP 2.90 
#
DISCID=b609d90e
DTITLE=Patrick Feeney - Young Country
DYEAR=2005
DGENRE=Country
TTITLE0=Everything A Man Could Ever Need
TTITLE1=Golden Years
TTITLE2=She Always Talked About Mexico
TTITLE3=The Flame Just Flickered And Died
TTITLE4=Billy Billy Bio
TTITLE5=Let Me Be the One
TTITLE6=Lovely Lisdoonvarna
TTITLE7=Mockingbird Hill
TTITLE8=When A Heart Wil Fall
TTITLE9=Now And Then
TTITLE10=A Road That Never Ends
TTITLE11=Glens Of Home
TTITLE12=Let The World Keep On A-Turning
TTITLE13=I'll Fly Away
EXTD=Submitted by Peter Gaughan
EXTT0=
EXTT1=
EXTT2=
EXTT3=
EXTT4=
EXTT5=
EXTT6=
EXTT7=
EXTT8=
EXTT9=
EXTT10=
EXTT11=
EXTT12=
EXTT13=
PLAYORDER=
